<svg width="379" height="380" xmlns="http://www.w3.org/2000/svg" xmlns:xlink="http://www.w3.org/1999/xlink" overflow="hidden"><defs><linearGradient x1="366.5" y1="691" x2="366.5" y2="717" gradientUnits="userSpaceOnUse" spreadMethod="reflect" id="fill0"><stop offset="0" stop-color="#595959"/><stop offset="0.6" stop-color="#7F7F7F"/><stop offset="0.98601" stop-color="#404040"/><stop offset="1" stop-color="#404040"/></linearGradient><linearGradient x1="542.5" y1="691" x2="542.5" y2="717" gradientUnits="userSpaceOnUse" spreadMethod="reflect" id="fill1"><stop offset="0" stop-color="#595959"/><stop offset="0.6" stop-color="#7F7F7F"/><stop offset="0.98601" stop-color="#404040"/><stop offset="1" stop-color="#404040"/></linearGradient><linearGradient x1="455.5" y1="856.833" x2="455.5" y2="703.167" gradientUnits="userSpaceOnUse" spreadMethod="reflect" id="stroke2"><stop offset="0" stop-color="#F6F8FC"/><stop offset="0.74" stop-color="#262626"/><stop offset="1" stop-color="#262626"/></linearGradient><linearGradient x1="397.225" y1="678.984" x2="511.775" y2="854.016" gradientUnits="userSpaceOnUse" spreadMethod="reflect" id="fill3"><stop offset="0" stop-color="#595959"/><stop offset="0.02" stop-color="#585858"/><stop offset="0.04" stop-color="#585858"/><stop offset="0.06" stop-color="#585858"/><stop offset="0.08" stop-color="#585858"/><stop offset="0.1" stop-color="#585858"/><stop offset="0.12" stop-color="#585858"/><stop offset="0.14" stop-color="#575757"/><stop offset="0.16" stop-color="#575757"/><stop offset="0.18" stop-color="#565656"/><stop offset="0.2" stop-color="#565656"/><stop offset="0.22" stop-color="#565656"/><stop offset="0.24" stop-color="#555555"/><stop offset="0.26" stop-color="#545454"/><stop offset="0.28" stop-color="#545454"/><stop offset="0.3" stop-color="#535353"/><stop offset="0.32" stop-color="#525252"/><stop offset="0.34" stop-color="#525252"/><stop offset="0.36" stop-color="#515151"/><stop offset="0.38" stop-color="#505050"/><stop offset="0.4" stop-color="#4F4F4F"/><stop offset="0.42" stop-color="#4E4E4E"/><stop offset="0.44" stop-color="#4E4E4E"/><stop offset="0.46" stop-color="#4D4D4D"/><stop offset="0.48" stop-color="#4C4C4C"/><stop offset="0.5" stop-color="#4B4B4B"/><stop offset="0.52" stop-color="#4A4A4A"/><stop offset="0.54" stop-color="#484848"/><stop offset="0.56" stop-color="#474747"/><stop offset="0.58" stop-color="#464646"/><stop offset="0.6" stop-color="#454545"/><stop offset="0.62" stop-color="#444444"/><stop offset="0.64" stop-color="#424242"/><stop offset="0.66" stop-color="#414141"/><stop offset="0.68" stop-color="#404040"/><stop offset="0.7" stop-color="#3E3E3E"/><stop offset="0.72" stop-color="#3D3D3D"/><stop offset="0.74" stop-color="#3C3C3C"/><stop offset="0.76" stop-color="#3A3A3A"/><stop offset="0.78" stop-color="#383838"/><stop offset="0.8" stop-color="#373737"/><stop offset="0.82" stop-color="#353535"/><stop offset="0.84" stop-color="#343434"/><stop offset="0.86" stop-color="#323232"/><stop offset="0.88" stop-color="#303030"/><stop offset="0.9" stop-color="#2F2F2F"/><stop offset="0.92" stop-color="#2D2D2D"/><stop offset="0.94" stop-color="#2B2B2B"/><stop offset="0.96" stop-color="#292929"/><stop offset="0.98" stop-color="#272727"/><stop offset="1" stop-color="#262626"/></linearGradient><linearGradient x1="455.5" y1="552.167" x2="455.5" y2="705.833" gradientUnits="userSpaceOnUse" spreadMethod="reflect" id="stroke4"><stop offset="0" stop-color="#F6F8FC"/><stop offset="0.74" stop-color="#262626"/><stop offset="1" stop-color="#262626"/></linearGradient><linearGradient x1="455" y1="830.833" x2="455" y2="703.167" gradientUnits="userSpaceOnUse" spreadMethod="reflect" id="stroke5"><stop offset="0" stop-color="#F6F8FC"/><stop offset="0.74" stop-color="#262626"/><stop offset="1" stop-color="#262626"/></linearGradient></defs><g transform="translate(-265 -514)"><path d="M266 578.001C266 543.207 294.207 515 329.001 515L580.999 515C615.793 515 644 543.207 644 578.001L644 829.999C644 864.793 615.793 893 580.999 893L329.001 893C294.207 893 266 864.793 266 829.999Z" fill="#FFFFFF" fill-rule="evenodd"/><path d="M366 704C366 703.448 366.448 703 367 703L542 703C542.552 703 543 703.448 543 704L543 704C543 704.552 542.552 705 542 705L367 705C366.448 705 366 704.552 366 704Z" fill-rule="evenodd"/><path d="M364 693.5C364 692.119 365.119 691 366.5 691L366.5 691C367.881 691 369 692.119 369 693.5L369 714.5C369 715.881 367.881 717 366.5 717L366.5 717C365.119 717 364 715.881 364 714.5Z" fill="url(#fill0)" fill-rule="evenodd"/><path d="M540 693.5C540 692.119 541.119 691 542.5 691L542.5 691C543.881 691 545 692.119 545 693.5L545 714.5C545 715.881 543.881 717 542.5 717L542.5 717C541.119 717 540 715.881 540 714.5Z" fill="url(#fill1)" fill-rule="evenodd"/><path d="M370 560.056C370 556.159 373.159 553 377.056 553L532.944 553C536.841 553 540 556.159 540 560.056L540 696.944C540 700.841 536.841 704 532.944 704L377.056 704C373.159 704 370 700.841 370 696.944Z" fill="#262626" fill-rule="evenodd"/><path d="M405 592 504.341 592 504.341 626.728 440.516 626.728 440.516 672.22C442.121 670.306 443.873 668.482 445.77 666.75 447.667 665.018 449.709 663.557 451.898 662.368 454.122 661.196 456.531 660.278 459.12 659.614 461.71 658.95 464.264 658.613 466.78 658.6 473.811 658.583 479.695 659.633 484.432 661.752 489.171 663.871 493.38 667.167 497.062 671.639 501.41 677.41 504.14 685.282 505.25 695.254L506 704 466.53 704 466.038 701.991C465.744 701.054 465.408 700.21 465.03 699.457 462.694 695.4 459.192 693.371 454.524 693.371 450.949 693.365 448.031 694.536 445.77 696.884 444.639 698.058 443.782 699.536 443.198 701.317L442.609 703.864 405 703.864 405 592Z" fill="#FFFFFF" fill-rule="evenodd"/><path d="M370.5 711.556C370.5 707.659 373.659 704.5 377.556 704.5L533.444 704.5C537.341 704.5 540.5 707.659 540.5 711.556L540.5 848.444C540.5 852.341 537.341 855.5 533.444 855.5L377.556 855.5C373.659 855.5 370.5 852.341 370.5 848.444Z" stroke="#172C51" stroke-width="1.33333" stroke-miterlimit="8" fill="#262626" fill-rule="evenodd"/><path d="M466.601 704 506.202 704 506.433 706.701C506.671 710.603 506.819 714.576 506.877 718.621 506.834 732.519 507.742 764.093 505.191 778.596 502.64 793.1 499.233 797.991 491.571 805.641 486.813 810.016 481.213 813.334 474.771 815.593 468.329 817.852 461.553 818.989 454.443 819 447.331 819.006 440.555 817.907 434.114 815.701 427.671 813.497 422.072 810.143 417.314 805.641 412.629 801.395 409.074 796.348 406.652 790.499 404.229 784.651 403.013 777.273 403 768.367L403 760.213 442.146 760.213 442.146 774.483C442.219 779.281 443.391 782.86 445.66 785.22 447.929 787.58 450.856 788.757 454.443 788.752 456.602 788.776 458.432 788.436 459.932 787.732 461.433 787.029 462.823 785.815 464.105 784.092 466.044 780.882 467.141 775.653 467.398 768.404 467.984 756.545 468.003 724.433 467.619 712.938 467.537 709.95 467.286 707.331 466.865 705.08L466.601 704Z" fill="#FFFFFF" fill-rule="evenodd"/><path d="M370.5 711.556C370.5 707.659 373.659 704.5 377.556 704.5L533.444 704.5C537.341 704.5 540.5 707.659 540.5 711.556L540.5 848.444C540.5 852.341 537.341 855.5 533.444 855.5L377.556 855.5C373.659 855.5 370.5 852.341 370.5 848.444Z" stroke="url(#stroke2)" stroke-width="2.66667" stroke-miterlimit="8" fill="#FFFFFF" fill-rule="evenodd" fill-opacity="0"/><path d="M454.45 829C424.97 829 395.498 829 366.017 829 364.317 829 362.75 828.588 361.389 827.558 359.715 826.296 358.852 824.621 359.021 822.499 359.324 818.63 359.662 814.771 359.991 810.911 360.24 807.911 360.49 804.912 360.739 801.903 361.05 798.222 361.371 794.533 361.682 790.853 361.932 787.853 362.181 784.853 362.43 781.844 362.742 778.164 363.062 774.474 363.374 770.794 363.623 767.794 363.872 764.794 364.121 761.785 364.46 757.747 364.816 753.708 365.154 749.661 365.403 746.661 365.652 743.661 365.902 740.652 366.177 737.339 366.471 734.025 366.756 730.712 367.005 727.712 367.255 724.712 367.504 721.704 367.78 718.39 368.073 715.077 368.349 711.764 368.412 711.021 368.492 710.277 368.527 709.534 368.643 707.564 369.711 706.212 371.305 705.209 372.684 704.349 374.215 704 375.844 704 411.778 704.009 447.703 704.009 483.637 704.009 500.176 704.009 516.723 704.009 533.262 704.009 535.193 704.009 536.947 704.546 538.469 705.764 539.831 706.857 540.409 708.298 540.534 710.044 540.828 714.208 541.219 718.372 541.566 722.527 541.931 726.924 542.296 731.33 542.67 735.727 542.955 739.067 543.249 742.416 543.534 745.756 543.818 749.087 544.085 752.419 544.361 755.741 544.673 759.457 545.002 763.173 545.314 766.89 545.563 769.818 545.803 772.746 546.044 775.674 546.328 779.059 546.613 782.453 546.898 785.838 547.21 789.527 547.512 793.208 547.833 796.897 548.118 800.255 548.411 803.613 548.696 806.971 548.972 810.284 549.248 813.598 549.524 816.911 549.675 818.756 549.836 820.6 549.978 822.436 550.156 824.648 549.248 826.349 547.503 827.621 546.177 828.588 544.664 828.982 543.026 828.982 513.492 829 483.976 829 454.45 829Z" fill="url(#fill3)" fill-rule="evenodd"/><path d="M370.5 560.556C370.5 556.659 373.659 553.5 377.556 553.5L533.444 553.5C537.341 553.5 540.5 556.659 540.5 560.556L540.5 697.444C540.5 701.341 537.341 704.5 533.444 704.5L377.556 704.5C373.659 704.5 370.5 701.341 370.5 697.444Z" stroke="url(#stroke4)" stroke-width="2.66667" stroke-miterlimit="8" fill="#FFFFFF" fill-rule="evenodd" fill-opacity="0"/><path d="M400.433 747.437C414.087 747.437 427.714 747.437 441.368 747.437 441.377 747.591 441.395 747.726 441.395 747.853 441.35 751.52 441.296 755.188 441.269 758.855 441.252 761.508 441.718 764.053 443.306 766.262 444.454 767.856 445.988 768.987 447.774 769.694 451.99 771.342 456.287 771.459 460.522 769.875 463.096 768.915 464.962 767.077 466.039 764.451 467.169 761.68 467.654 758.773 467.815 755.812 468.309 746.875 468.201 737.929 468.093 728.983 468.022 723.052 467.806 717.13 467.627 711.208 467.564 709.188 467.358 707.178 466.873 705.204 466.775 704.815 466.658 704.435 466.532 704 479.783 704 492.997 704 506.275 704 506.409 704.824 506.589 705.666 506.688 706.508 506.957 708.962 507.235 711.425 507.432 713.888 507.63 716.396 507.737 718.914 507.89 721.431 508.087 724.672 508.32 727.905 508.464 731.147 508.67 735.774 508.885 740.401 508.975 745.028 509.038 748.541 508.975 752.055 508.859 755.568 508.688 760.594 507.827 765.51 506.239 770.291 504.857 774.448 502.552 778.006 499.412 781.022 496.918 783.421 494.325 785.676 491.383 787.514 488.718 789.171 485.937 790.593 483.039 791.761 478.222 793.708 473.225 795.021 468.111 795.872 461.67 796.949 455.184 797.221 448.671 796.832 442.167 796.433 435.788 795.337 429.58 793.363 423.838 791.534 418.527 788.845 413.728 785.142 410.525 782.67 407.672 779.863 405.394 776.494 403.106 773.117 401.554 769.431 400.773 765.411 399.984 761.345 399.867 757.243 400.119 753.114 400.226 751.348 400.298 749.592 400.388 747.826 400.397 747.69 400.415 747.573 400.433 747.437Z" fill="#FFFFFF" fill-rule="evenodd"/><path d="M454.951 829.5C425.47 829.5 395.998 829.5 366.517 829.5 364.817 829.5 363.251 829.088 361.889 828.058 360.215 826.796 359.352 825.121 359.521 822.999 359.824 819.13 360.162 815.271 360.491 811.411 360.74 808.412 360.99 805.412 361.239 802.403 361.55 798.722 361.871 795.033 362.182 791.353 362.432 788.353 362.681 785.353 362.93 782.344 363.242 778.664 363.562 774.974 363.874 771.294 364.123 768.294 364.372 765.294 364.621 762.285 364.96 758.247 365.316 754.208 365.654 750.161 365.903 747.161 366.152 744.161 366.402 741.152 366.678 737.839 366.971 734.526 367.256 731.212 367.505 728.212 367.755 725.213 368.004 722.204 368.28 718.89 368.573 715.577 368.849 712.264 368.912 711.521 368.992 710.777 369.027 710.034 369.143 708.064 370.211 706.712 371.805 705.709 373.184 704.849 374.715 704.5 376.344 704.5 412.278 704.509 448.203 704.509 484.138 704.509 500.676 704.509 517.223 704.509 533.762 704.509 535.693 704.509 537.447 705.046 538.969 706.264 540.331 707.357 540.909 708.798 541.034 710.545 541.328 714.709 541.719 718.872 542.066 723.028 542.431 727.424 542.796 731.83 543.17 736.227 543.455 739.567 543.749 742.916 544.034 746.256 544.318 749.587 544.585 752.919 544.861 756.241 545.173 759.957 545.502 763.673 545.814 767.39 546.063 770.318 546.303 773.246 546.544 776.174 546.829 779.559 547.113 782.953 547.398 786.338 547.71 790.027 548.012 793.708 548.333 797.397 548.618 800.755 548.911 804.113 549.196 807.471 549.472 810.785 549.748 814.098 550.024 817.411 550.175 819.256 550.336 821.1 550.478 822.936 550.656 825.148 549.748 826.849 548.003 828.121 546.677 829.088 545.164 829.482 543.526 829.482 513.992 829.5 484.476 829.5 454.951 829.5Z" stroke="url(#stroke5)" stroke-width="2.66667" stroke-miterlimit="8" fill="#FFFFFF" fill-rule="evenodd" fill-opacity="0"/></g></svg>