<svg width="379" height="379" xmlns="http://www.w3.org/2000/svg" xmlns:xlink="http://www.w3.org/1999/xlink" overflow="hidden"><defs><linearGradient x1="1054.5" y1="391" x2="1054.5" y2="416" gradientUnits="userSpaceOnUse" spreadMethod="reflect" id="fill0"><stop offset="0" stop-color="#595959"/><stop offset="0.6" stop-color="#7F7F7F"/><stop offset="0.98601" stop-color="#404040"/><stop offset="1" stop-color="#404040"/></linearGradient><linearGradient x1="1229.5" y1="391" x2="1229.5" y2="416" gradientUnits="userSpaceOnUse" spreadMethod="reflect" id="fill1"><stop offset="0" stop-color="#595959"/><stop offset="0.6" stop-color="#7F7F7F"/><stop offset="0.98601" stop-color="#404040"/><stop offset="1" stop-color="#404040"/></linearGradient><linearGradient x1="1142.5" y1="556.833" x2="1142.5" y2="402.167" gradientUnits="userSpaceOnUse" spreadMethod="reflect" id="stroke2"><stop offset="0" stop-color="#F6F8FC"/><stop offset="0.74" stop-color="#262626"/><stop offset="1" stop-color="#262626"/></linearGradient><linearGradient x1="1141.5" y1="474" x2="1141.5" y2="554" gradientUnits="userSpaceOnUse" spreadMethod="reflect" id="fill3"><stop offset="0"/><stop offset="0.6"/><stop offset="0.92" stop-color="#000000" stop-opacity="0"/><stop offset="1" stop-color="#000000" stop-opacity="0"/></linearGradient><linearGradient x1="1084.22" y1="377.984" x2="1198.78" y2="553.016" gradientUnits="userSpaceOnUse" spreadMethod="reflect" id="fill4"><stop offset="0" stop-color="#595959"/><stop offset="0.02" stop-color="#585858"/><stop offset="0.04" stop-color="#585858"/><stop offset="0.06" stop-color="#585858"/><stop offset="0.08" stop-color="#585858"/><stop offset="0.1" stop-color="#585858"/><stop offset="0.12" stop-color="#585858"/><stop offset="0.14" stop-color="#575757"/><stop offset="0.16" stop-color="#575757"/><stop offset="0.18" stop-color="#565656"/><stop offset="0.2" stop-color="#565656"/><stop offset="0.22" stop-color="#565656"/><stop offset="0.24" stop-color="#555555"/><stop offset="0.26" stop-color="#545454"/><stop offset="0.28" stop-color="#545454"/><stop offset="0.3" stop-color="#535353"/><stop offset="0.32" stop-color="#525252"/><stop offset="0.34" stop-color="#525252"/><stop offset="0.36" stop-color="#515151"/><stop offset="0.38" stop-color="#505050"/><stop offset="0.4" stop-color="#4F4F4F"/><stop offset="0.42" stop-color="#4E4E4E"/><stop offset="0.44" stop-color="#4E4E4E"/><stop offset="0.46" stop-color="#4D4D4D"/><stop offset="0.48" stop-color="#4C4C4C"/><stop offset="0.5" stop-color="#4B4B4B"/><stop offset="0.52" stop-color="#4A4A4A"/><stop offset="0.54" stop-color="#484848"/><stop offset="0.56" stop-color="#474747"/><stop offset="0.58" stop-color="#464646"/><stop offset="0.6" stop-color="#454545"/><stop offset="0.62" stop-color="#444444"/><stop offset="0.64" stop-color="#424242"/><stop offset="0.66" stop-color="#414141"/><stop offset="0.68" stop-color="#404040"/><stop offset="0.7" stop-color="#3E3E3E"/><stop offset="0.72" stop-color="#3D3D3D"/><stop offset="0.74" stop-color="#3C3C3C"/><stop offset="0.76" stop-color="#3A3A3A"/><stop offset="0.78" stop-color="#383838"/><stop offset="0.8" stop-color="#373737"/><stop offset="0.82" stop-color="#353535"/><stop offset="0.84" stop-color="#343434"/><stop offset="0.86" stop-color="#323232"/><stop offset="0.88" stop-color="#303030"/><stop offset="0.9" stop-color="#2F2F2F"/><stop offset="0.92" stop-color="#2D2D2D"/><stop offset="0.94" stop-color="#2B2B2B"/><stop offset="0.96" stop-color="#292929"/><stop offset="0.98" stop-color="#272727"/><stop offset="1" stop-color="#262626"/></linearGradient><linearGradient x1="1142.5" y1="251.167" x2="1142.5" y2="404.833" gradientUnits="userSpaceOnUse" spreadMethod="reflect" id="stroke5"><stop offset="0" stop-color="#F6F8FC"/><stop offset="0.74" stop-color="#262626"/><stop offset="1" stop-color="#262626"/></linearGradient><linearGradient x1="1142" y1="529.833" x2="1142" y2="403.167" gradientUnits="userSpaceOnUse" spreadMethod="reflect" id="stroke6"><stop offset="0" stop-color="#F6F8FC"/><stop offset="0.74" stop-color="#262626"/><stop offset="1" stop-color="#262626"/></linearGradient></defs><g transform="translate(-952 -214)"><path d="M953 270.638C953 239.91 977.91 215 1008.64 215L1275.36 215C1306.09 215 1331 239.91 1331 270.638L1331 536.362C1331 567.09 1306.09 592 1275.36 592L1008.64 592C977.91 592 953 567.09 953 536.362Z" fill="#FFFFFF" fill-rule="evenodd"/><path d="M990 403.5C990 319.829 1057.83 252 1141.5 252L1141.5 252C1225.17 252 1293 319.829 1293 403.5L1293 403.5C1293 487.171 1225.17 555 1141.5 555L1141.5 555C1057.83 555 990 487.171 990 403.5Z" fill-rule="evenodd"/><path d="M1053 403.5C1053 402.672 1053.67 402 1054.5 402L1228.5 402C1229.33 402 1230 402.672 1230 403.5L1230 403.5C1230 404.328 1229.33 405 1228.5 405L1054.5 405C1053.67 405 1053 404.328 1053 403.5Z" fill-rule="evenodd"/><path d="M1052 393.5C1052 392.119 1053.12 391 1054.5 391L1054.5 391C1055.88 391 1057 392.119 1057 393.5L1057 413.5C1057 414.881 1055.88 416 1054.5 416L1054.5 416C1053.12 416 1052 414.881 1052 413.5Z" fill="url(#fill0)" fill-rule="evenodd"/><path d="M1227 393.5C1227 392.119 1228.12 391 1229.5 391L1229.5 391C1230.88 391 1232 392.119 1232 393.5L1232 413.5C1232 414.881 1230.88 416 1229.5 416L1229.5 416C1228.12 416 1227 414.881 1227 413.5Z" fill="url(#fill1)" fill-rule="evenodd"/><path d="M1057 259.056C1057 255.159 1060.16 252 1064.06 252L1219.94 252C1223.84 252 1227 255.159 1227 259.056L1227 395.944C1227 399.841 1223.84 403 1219.94 403L1064.06 403C1060.16 403 1057 399.841 1057 395.944Z" fill="#262626" fill-rule="evenodd"/><path d="M1092 291 1191.34 291 1191.34 325.728 1127.52 325.728 1127.52 371.22C1129.12 369.306 1130.87 367.482 1132.77 365.75 1134.67 364.018 1136.71 362.557 1138.9 361.368 1141.12 360.196 1143.53 359.278 1146.12 358.614 1148.71 357.95 1151.26 357.613 1153.78 357.6 1160.81 357.583 1166.7 358.633 1171.43 360.752 1176.17 362.871 1180.38 366.167 1184.06 370.639 1188.41 376.41 1191.14 384.282 1192.25 394.254L1193 403 1153.53 403 1153.04 400.991C1152.74 400.054 1152.41 399.21 1152.03 398.457 1149.69 394.4 1146.19 392.371 1141.52 392.371 1137.95 392.365 1135.03 393.536 1132.77 395.884 1131.64 397.058 1130.78 398.536 1130.2 400.317L1129.61 402.864 1092 402.864 1092 291Z" fill="#FFFFFF" fill-rule="evenodd"/><path d="M1057.5 410.603C1057.5 406.68 1060.68 403.5 1064.6 403.5L1220.4 403.5C1224.32 403.5 1227.5 406.68 1227.5 410.603L1227.5 548.397C1227.5 552.32 1224.32 555.5 1220.4 555.5L1064.6 555.5C1060.68 555.5 1057.5 552.32 1057.5 548.397Z" stroke="#172C51" stroke-width="1.33333" stroke-miterlimit="8" fill="#262626" fill-rule="evenodd"/><path d="M1153.99 403 1193.21 403 1193.44 405.701C1193.67 409.603 1193.82 413.576 1193.88 417.621 1193.84 431.519 1194.74 463.093 1192.21 477.596 1189.68 492.1 1186.31 496.991 1178.72 504.641 1174.01 509.016 1168.46 512.334 1162.08 514.593 1155.7 516.852 1148.99 517.989 1141.95 518 1134.91 518.006 1128.19 516.907 1121.81 514.701 1115.43 512.497 1109.89 509.143 1105.18 504.641 1100.54 500.395 1097.02 495.348 1094.62 489.499 1092.22 483.651 1091.01 476.273 1091 467.367L1091 459.213 1129.77 459.213 1129.77 473.483C1129.84 478.281 1131 481.86 1133.25 484.22 1135.5 486.58 1138.4 487.757 1141.95 487.752 1144.09 487.776 1145.9 487.436 1147.39 486.732 1148.87 486.029 1150.25 484.815 1151.52 483.092 1153.44 479.882 1154.52 474.653 1154.78 467.404 1155.36 455.545 1155.38 423.433 1155 411.938 1154.92 408.95 1154.67 406.331 1154.25 404.08L1153.99 403Z" fill="#FFFFFF" fill-rule="evenodd"/><path d="M1057.5 410.603C1057.5 406.68 1060.68 403.5 1064.6 403.5L1220.4 403.5C1224.32 403.5 1227.5 406.68 1227.5 410.603L1227.5 548.397C1227.5 552.32 1224.32 555.5 1220.4 555.5L1064.6 555.5C1060.68 555.5 1057.5 552.32 1057.5 548.397Z" stroke="url(#stroke2)" stroke-width="2.66667" stroke-miterlimit="8" fill="#FFFFFF" fill-rule="evenodd" fill-opacity="0"/><path d="M1141.45 554C1112.9 554 1084.35 554 1055.8 554 1054.15 554 1052.63 553.736 1051.31 553.077 1049.69 552.269 1048.86 551.198 1049.02 549.839 1049.31 547.363 1049.64 544.893 1049.96 542.423 1050.2 540.503 1050.44 538.583 1050.68 536.658 1050.99 534.302 1051.3 531.941 1051.6 529.586 1051.84 527.666 1052.08 525.746 1052.32 523.82 1052.62 521.465 1052.93 519.104 1053.24 516.748 1053.48 514.828 1053.72 512.908 1053.96 510.983 1054.29 508.398 1054.63 505.813 1054.96 503.223 1055.2 501.303 1055.44 499.383 1055.68 497.457 1055.95 495.337 1056.24 493.216 1056.51 491.096 1056.75 489.176 1057 487.256 1057.24 485.33 1057.5 483.21 1057.79 481.089 1058.06 478.969 1058.12 478.493 1058.19 478.017 1058.23 477.542 1058.34 476.281 1059.37 475.416 1060.92 474.774 1062.25 474.224 1063.74 474 1065.32 474 1100.12 474.006 1134.92 474.006 1169.72 474.006 1185.74 474.006 1201.77 474.006 1217.79 474.006 1219.66 474.006 1221.36 474.35 1222.83 475.129 1224.15 475.828 1224.71 476.751 1224.83 477.868 1225.12 480.533 1225.49 483.198 1225.83 485.858 1226.18 488.672 1226.54 491.491 1226.9 494.305 1227.18 496.443 1227.46 498.586 1227.74 500.724 1228.01 502.856 1228.27 504.988 1228.54 507.114 1228.84 509.492 1229.16 511.871 1229.46 514.249 1229.7 516.123 1229.94 517.997 1230.17 519.871 1230.44 522.038 1230.72 524.21 1231 526.376 1231.3 528.737 1231.59 531.093 1231.9 533.454 1232.18 535.603 1232.46 537.752 1232.74 539.902 1233 542.022 1233.27 544.143 1233.54 546.263 1233.69 547.444 1233.84 548.624 1233.98 549.799 1234.15 551.215 1233.27 552.304 1231.58 553.117 1230.3 553.736 1228.83 553.989 1227.25 553.989 1198.64 554 1170.05 554 1141.45 554Z" fill="url(#fill3)" fill-rule="evenodd"/><path d="M1141.45 528C1111.97 528 1082.5 528 1053.02 528 1051.32 528 1049.75 527.588 1048.39 526.558 1046.72 525.296 1045.85 523.621 1046.02 521.499 1046.32 517.63 1046.66 513.771 1046.99 509.911 1047.24 506.911 1047.49 503.912 1047.74 500.903 1048.05 497.222 1048.37 493.533 1048.68 489.853 1048.93 486.853 1049.18 483.853 1049.43 480.844 1049.74 477.164 1050.06 473.474 1050.37 469.794 1050.62 466.794 1050.87 463.794 1051.12 460.785 1051.46 456.747 1051.82 452.708 1052.15 448.66 1052.4 445.661 1052.65 442.661 1052.9 439.652 1053.18 436.339 1053.47 433.025 1053.76 429.712 1054.01 426.712 1054.25 423.712 1054.5 420.704 1054.78 417.39 1055.07 414.077 1055.35 410.764 1055.41 410.021 1055.49 409.277 1055.53 408.534 1055.64 406.564 1056.71 405.212 1058.3 404.209 1059.68 403.349 1061.22 403 1062.84 403 1098.78 403.009 1134.7 403.009 1170.64 403.009 1187.18 403.009 1203.72 403.009 1220.26 403.009 1222.19 403.009 1223.95 403.546 1225.47 404.764 1226.83 405.857 1227.41 407.298 1227.53 409.044 1227.83 413.208 1228.22 417.372 1228.57 421.527 1228.93 425.924 1229.3 430.33 1229.67 434.727 1229.95 438.067 1230.25 441.416 1230.53 444.756 1230.82 448.087 1231.09 451.419 1231.36 454.741 1231.67 458.457 1232 462.173 1232.31 465.89 1232.56 468.818 1232.8 471.746 1233.04 474.674 1233.33 478.059 1233.61 481.453 1233.9 484.838 1234.21 488.527 1234.51 492.208 1234.83 495.897 1235.12 499.255 1235.41 502.613 1235.7 505.971 1235.97 509.284 1236.25 512.598 1236.52 515.911 1236.68 517.756 1236.84 519.6 1236.98 521.436 1237.16 523.648 1236.25 525.349 1234.5 526.621 1233.18 527.588 1231.66 527.982 1230.03 527.982 1200.49 528 1170.98 528 1141.45 528Z" fill="url(#fill4)" fill-rule="evenodd"/><path d="M1057.5 259.556C1057.5 255.659 1060.66 252.5 1064.56 252.5L1220.44 252.5C1224.34 252.5 1227.5 255.659 1227.5 259.556L1227.5 396.444C1227.5 400.341 1224.34 403.5 1220.44 403.5L1064.56 403.5C1060.66 403.5 1057.5 400.341 1057.5 396.444Z" stroke="url(#stroke5)" stroke-width="2.66667" stroke-miterlimit="8" fill="#FFFFFF" fill-rule="evenodd" fill-opacity="0"/><path d="M1087.43 446.437C1101.09 446.437 1114.71 446.437 1128.37 446.437 1128.38 446.591 1128.4 446.726 1128.4 446.853 1128.35 450.52 1128.3 454.188 1128.27 457.855 1128.25 460.508 1128.72 463.053 1130.31 465.262 1131.45 466.856 1132.99 467.988 1134.77 468.694 1138.99 470.342 1143.29 470.46 1147.52 468.875 1150.1 467.915 1151.96 466.077 1153.04 463.451 1154.17 460.68 1154.65 457.773 1154.82 454.812 1155.31 445.875 1155.2 436.929 1155.09 427.983 1155.02 422.052 1154.81 416.13 1154.63 410.208 1154.56 408.188 1154.36 406.178 1153.87 404.204 1153.77 403.815 1153.66 403.435 1153.53 403 1166.78 403 1180 403 1193.27 403 1193.41 403.824 1193.59 404.666 1193.69 405.508 1193.96 407.962 1194.23 410.425 1194.43 412.888 1194.63 415.396 1194.74 417.914 1194.89 420.431 1195.09 423.672 1195.32 426.905 1195.46 430.147 1195.67 434.774 1195.89 439.401 1195.98 444.028 1196.04 447.541 1195.98 451.055 1195.86 454.568 1195.69 459.594 1194.83 464.51 1193.24 469.291 1191.86 473.448 1189.55 477.006 1186.41 480.022 1183.92 482.421 1181.33 484.676 1178.38 486.514 1175.72 488.171 1172.94 489.593 1170.04 490.761 1165.22 492.708 1160.22 494.021 1155.11 494.872 1148.67 495.949 1142.18 496.221 1135.67 495.832 1129.17 495.433 1122.79 494.337 1116.58 492.363 1110.84 490.534 1105.53 487.845 1100.73 484.142 1097.53 481.67 1094.67 478.863 1092.39 475.494 1090.11 472.117 1088.55 468.431 1087.77 464.411 1086.98 460.345 1086.87 456.243 1087.12 452.114 1087.23 450.348 1087.3 448.592 1087.39 446.826 1087.4 446.69 1087.41 446.573 1087.43 446.437Z" fill="#FFFFFF" fill-rule="evenodd"/><path d="M1141.95 528.5C1112.47 528.5 1083 528.5 1053.52 528.5 1051.82 528.5 1050.25 528.091 1048.89 527.07 1047.22 525.817 1046.35 524.156 1046.52 522.051 1046.82 518.213 1047.16 514.385 1047.49 510.556 1047.74 507.58 1047.99 504.604 1048.24 501.62 1048.55 497.969 1048.87 494.309 1049.18 490.658 1049.43 487.682 1049.68 484.706 1049.93 481.721 1050.24 478.07 1050.56 474.411 1050.87 470.76 1051.12 467.784 1051.37 464.808 1051.62 461.823 1051.96 457.817 1052.32 453.81 1052.65 449.795 1052.9 446.819 1053.15 443.844 1053.4 440.859 1053.68 437.572 1053.97 434.285 1054.26 430.999 1054.51 428.023 1054.75 425.047 1055 422.062 1055.28 418.775 1055.57 415.489 1055.85 412.202 1055.91 411.464 1055.99 410.727 1056.03 409.99 1056.14 408.036 1057.21 406.694 1058.8 405.699 1060.18 404.846 1061.72 404.5 1063.34 404.5 1099.28 404.509 1135.2 404.509 1171.14 404.509 1187.68 404.509 1204.22 404.509 1220.76 404.509 1222.69 404.509 1224.45 405.042 1225.97 406.25 1227.33 407.334 1227.91 408.764 1228.03 410.496 1228.33 414.627 1228.72 418.758 1229.07 422.879 1229.43 427.241 1229.8 431.611 1230.17 435.973 1230.45 439.286 1230.75 442.609 1231.03 445.922 1231.32 449.227 1231.59 452.531 1231.86 455.827 1232.17 459.513 1232.5 463.2 1232.81 466.887 1233.06 469.791 1233.3 472.696 1233.54 475.601 1233.83 478.959 1234.11 482.325 1234.4 485.683 1234.71 489.343 1235.01 492.994 1235.33 496.654 1235.62 499.985 1235.91 503.316 1236.2 506.648 1236.47 509.934 1236.75 513.221 1237.02 516.508 1237.18 518.338 1237.34 520.168 1237.48 521.989 1237.66 524.183 1236.75 525.871 1235 527.132 1233.68 528.091 1232.16 528.482 1230.53 528.482 1200.99 528.5 1171.48 528.5 1141.95 528.5Z" stroke="url(#stroke6)" stroke-width="2.66667" stroke-miterlimit="8" fill="#FFFFFF" fill-rule="evenodd" fill-opacity="0"/></g></svg>